With: Leila Hatami, Peyman Moadi and Shahab Hosseini

De vrouw van Nader wil samen met hem en hun dochter Termeh Iran verlaten. Ze heeft alles al geregeld en staat erop om in het buitenland een nieuw leven te beginnen. Nader heeft echter zijn bedenkingen. Hij is bezorgd over zijn demente vader en hij wil hem niet aan zijn lot overlaten. Hij besluit daarom dat het gezin thuis moet blijven. Zijn vrouw Simin is het hier niet mee eens en weigert nog langer met hem samen te wonen. Ze vertrekt naar haar moeder en laat Nader en Termeh alleen achter. Nader kan maar moeilijk met deze nieuwe situatie omgaan en huurt een jonge vrouw in om op zijn zieke vader te passen. Hij weet alleen niet dat zijn nieuwe hulp niet alleen zwanger is, maar ook zonder de toestemming van haar man werkt... Nader komt al snel terecht in een web van leugens, manipulatie en confrontaties.

A married couple are faced with a difficult decision - to improve the life of their child by moving to another country or to stay in Iran and look after a deteriorating parent who has Alzheimers. 

------------------------ Dutch Friends ------------------------
---------------------------------------------------------------
- Bezoek ook eens mijn vrienden op:  http://www.Film-Test.nl --
----- voor mijn Nederlandse Sync. ondertitels ---- en meer ----
------- http://www.Film-Test.nl ---- voor Films en meer -------
---------------------------------------------------------------

General:

Complete name                    : Separation\Jodaeiye Nader az Simin.avi
Format                           : AVI
Format/Info                      : Audio Video Interleave
File size                        : 1.54 GiB
Duration                         : 1h 57mn
Overall bit rate                 : 1 870 Kbps

Video:

Format                           : MPEG-4 Visual
Format profile                   : Simple@L3
Format settings, BVOP            : No
Format settings, QPel            : No
Format settings, GMC             : No warppoints
Format settings, Matrix          : Default (H.263)
Codec ID                         : XVID
Codec ID/Hint                    : XviD
Duration                         : 1h 57mn
Bit rate                         : 1 411 Kbps
Width                            : 652 pixels
Height                           : 352 pixels
Display aspect ratio             : 1.852
Frame rate                       : 25.000 fps
Color space                      : YUV
Chroma subsampling               : 4:2:0
Bit depth                        : 8 bits
Scan type                        : Progressive
Compression mode                 : Lossy
Bits/(Pixel*Frame)               : 0.246
Stream size                      : 1.16 GiB (75%)
Writing library                  : XviD 1.1.2 (UTC 2006-11-01)

Audio:

Format                           : AC-3
Format/Info                      : Audio Coding 3
Mode extension                   : CM (complete main)
Codec ID                         : 2000
Duration                         : 1h 57mn
Bit rate mode                    : Constant
Bit rate                         : 448 Kbps
Channel(s)                       : 3 channels
Channel positions                : Front: L C R
Sampling rate                    : 48.0 KHz
Bit depth                        : 16 bits
Compression mode                 : Lossy
Stream size                      : 377 MiB (24%)
Alignment                        : Aligned on interleaves
Interleave, duration             : 32 ms (0.80 video frame)
Interleave, preload duration     : 64 ms